<?xml version="1.0" encoding="UTF-8"?>
<!DOCTYPE svg PUBLIC "-//W3C//DTD SVG 1.1//EN" "http://www.w3.org/Graphics/SVG/1.1/DTD/svg11.dtd">
<svg version="1.1" xmlns="http://www.w3.org/2000/svg" xmlns:xlink="http://www.w3.org/1999/xlink" x="0" y="0" width="597.472" height="751.582" viewBox="0, 0, 597.472, 751.582">
  <g id="svg4881">
    <g>
    <!--Letters-->
      <!-- <path d="M49.019,751.477 C48.967,751.424 48.43,751.34 47.828,751.291 C46.467,751.181 42.555,750.612 42.177,750.47 C42.024,750.413 41.627,750.327 41.295,750.279 C40.422,750.152 37.37,749.343 36.661,749.049 C36.328,748.912 35.831,748.735 35.553,748.659 C34.393,748.336 30.198,746.601 29.107,745.992 C28.831,745.837 28.014,745.418 27.294,745.06 C26.574,744.702 25.624,744.163 25.183,743.862 C24.741,743.562 24.274,743.315 24.142,743.315 C24.01,743.315 23.873,743.244 23.837,743.158 C23.755,742.969 21.091,741.102 20.889,741.093 C20.81,741.09 20.434,740.772 20.052,740.388 C19.669,740.003 19.246,739.689 19.112,739.689 C18.978,739.689 18.837,739.607 18.8,739.507 C18.764,739.406 18.144,738.811 17.424,738.182 C15.323,736.352 14.2,735.227 12.589,733.347 C11.758,732.376 10.897,731.39 10.676,731.154 C10.454,730.917 10.272,730.673 10.272,730.61 C10.272,730.546 9.752,729.793 9.114,728.936 C8.477,728.079 7.956,727.336 7.956,727.284 C7.956,727.234 7.712,726.809 7.413,726.34 C7.114,725.871 6.512,724.808 6.073,723.977 C5.635,723.146 5.199,722.436 5.105,722.398 C5.012,722.362 4.935,722.2 4.935,722.038 C4.935,721.877 4.735,721.363 4.491,720.897 C4.246,720.43 4.04,720.003 4.032,719.948 C3.977,719.578 2.799,716.813 2.674,716.759 C2.588,716.721 2.518,716.475 2.518,716.209 C2.518,715.943 2.386,715.384 2.226,714.966 C1.65,713.463 0.714,709.328 0.255,706.25 C0.049,704.873 0,640.342 0,376.19 C0,195.599 0.06,47.117 0.133,46.231 C0.286,44.405 0.727,41.825 1.336,39.22 C1.564,38.244 1.767,37.337 1.787,37.205 C1.807,37.073 1.874,36.874 1.939,36.764 C2.003,36.653 2.302,35.792 2.605,34.849 C3.258,32.819 3.548,32.108 4.682,29.751 C5.153,28.773 5.538,27.843 5.538,27.685 C5.538,27.527 5.608,27.396 5.694,27.396 C5.866,27.396 6.551,26.205 6.562,25.885 C6.562,25.775 6.727,25.504 6.921,25.281 C7.453,24.669 8.762,22.595 8.762,22.364 C8.762,22.251 8.844,22.159 8.947,22.159 C9.049,22.159 9.339,21.819 9.592,21.404 C10.122,20.536 12.042,18.205 13.206,17.019 C13.643,16.574 13.999,16.105 13.999,15.978 C13.999,15.851 14.085,15.716 14.192,15.68 C14.36,15.621 16.536,13.68 18.278,12.036 C18.601,11.733 18.912,11.483 18.968,11.483 C19.025,11.483 19.742,10.939 20.563,10.274 C21.382,9.609 22.114,9.066 22.187,9.066 C22.26,9.066 22.647,8.816 23.045,8.511 C23.444,8.207 24.041,7.811 24.373,7.631 C24.706,7.451 25.431,7.023 25.985,6.681 C26.539,6.34 27.423,5.864 27.949,5.624 C28.475,5.385 28.906,5.108 28.906,5.012 C28.906,4.915 29.03,4.836 29.181,4.836 C29.547,4.836 32.412,3.577 32.498,3.379 C32.535,3.294 32.74,3.224 32.953,3.224 C33.168,3.224 33.726,3.055 34.196,2.851 C34.665,2.646 35.73,2.277 36.561,2.031 C37.391,1.786 38.207,1.53 38.374,1.462 C38.54,1.394 38.811,1.316 38.978,1.289 C39.144,1.262 40.552,0.961 42.105,0.619 L44.931,0 L299.244,0.071 C439.116,0.111 553.783,0.19 554.06,0.248 C554.338,0.305 554.7,0.401 554.867,0.463 C555.033,0.524 555.894,0.726 556.78,0.91 C558.568,1.284 559.59,1.581 562.118,2.463 C563.06,2.792 563.921,3.084 564.032,3.113 C564.143,3.141 564.596,3.325 565.039,3.521 C565.482,3.717 565.935,3.896 566.047,3.919 C566.239,3.959 569.513,5.591 570.982,6.381 C571.369,6.589 572.361,7.197 573.187,7.733 C574.011,8.268 574.813,8.754 574.968,8.814 C575.124,8.873 575.533,9.181 575.881,9.497 C576.227,9.813 576.621,10.073 576.758,10.073 C576.893,10.073 577.078,10.188 577.166,10.328 C577.254,10.469 577.916,11.06 578.637,11.64 C579.357,12.221 580.262,13.013 580.651,13.4 C581.038,13.786 581.42,14.102 581.499,14.102 C581.577,14.101 582.076,14.573 582.607,15.15 C583.138,15.727 583.844,16.482 584.176,16.83 C585.14,17.839 586.117,19.011 587.173,20.433 C587.714,21.161 588.225,21.756 588.309,21.756 C588.394,21.756 588.517,21.967 588.581,22.225 C588.645,22.483 588.927,22.941 589.207,23.243 C589.487,23.544 589.716,23.849 589.716,23.92 C589.716,24.14 591.386,26.888 591.563,26.96 C591.654,26.997 591.729,27.158 591.729,27.316 C591.729,27.475 591.956,27.965 592.233,28.404 C592.51,28.842 592.737,29.289 592.737,29.396 C592.737,29.501 593.092,30.342 593.527,31.262 C593.961,32.183 594.429,33.321 594.566,33.792 C594.703,34.263 594.885,34.649 594.972,34.649 C595.058,34.649 595.12,34.807 595.109,35.001 C595.09,35.194 595.298,36.034 595.551,36.865 C596.131,38.766 596.542,40.388 596.671,41.296 C596.726,41.683 596.866,42.499 596.982,43.108 C597.098,43.718 597.255,44.76 597.331,45.425 C597.476,46.685 597.532,703.653 597.388,705.243 C597.342,705.742 597.187,706.741 597.042,707.465 C596.897,708.188 596.76,709.094 596.737,709.479 C596.713,709.863 596.632,710.269 596.555,710.379 C596.477,710.49 596.351,710.943 596.273,711.387 C596.093,712.399 595.182,715.619 594.847,716.423 C594.707,716.756 594.531,717.254 594.453,717.531 C594.374,717.808 593.956,718.787 593.524,719.708 C593.091,720.628 592.737,721.469 592.737,721.575 C592.737,721.682 592.511,722.128 592.233,722.567 C591.956,723.006 591.73,723.41 591.73,723.463 C591.73,723.517 591.276,724.329 590.722,725.267 C590.169,726.205 589.716,727.059 589.716,727.165 C589.716,727.272 589.6,727.403 589.458,727.458 C589.317,727.511 589.021,727.907 588.803,728.335 C588.584,728.763 588.308,729.205 588.186,729.315 C588.066,729.426 587.523,730.104 586.978,730.82 C585.762,732.424 584.827,733.495 582.666,735.761 C581.396,737.094 580.865,737.569 578.632,739.372 C576.472,741.117 575.622,741.775 575.234,742.006 C574.066,742.698 572.635,743.639 572.291,743.943 C572.069,744.138 571.83,744.28 571.759,744.26 C571.688,744.239 571.249,744.471 570.785,744.776 C570.319,745.081 569.865,745.329 569.776,745.329 C569.559,745.329 567.128,746.529 566.783,746.806 C566.632,746.925 566.325,747.051 566.099,747.086 C565.872,747.12 565.36,747.317 564.96,747.524 C563.1,748.481 556.263,750.462 554.06,750.682 C553.562,750.732 553.018,750.825 552.852,750.891 C552.685,750.955 551.96,751.048 551.24,751.097 C550.52,751.146 549.614,751.274 549.226,751.379 C548.513,751.573 49.213,751.67 49.019,751.477 z" fill="#000000"/>
      <path d="M223.59,716.158 C233.488,714.618 238.629,711.55 243.374,704.351 C248.273,696.917 249.314,688.694 246.452,680.036 C244.742,674.866 242.186,671.21 238.157,668.174 C234.192,665.186 228.673,662.986 218.454,660.317 C209.824,658.066 204.062,655.894 202.165,654.18 C201.664,653.728 201.025,652.81 200.574,651.897 C199.862,650.453 199.819,650.262 199.819,648.441 C199.819,646.669 199.873,646.405 200.481,645.171 C201.303,643.503 201.912,642.98 204.453,641.769 C207.685,640.227 209.26,639.892 213.316,639.883 C216.289,639.876 216.948,639.935 218.31,640.33 C220.052,640.835 222.139,641.83 223.426,642.769 C224.985,643.906 226.876,647.243 228.054,650.933 L228.626,652.723 L234.367,652.592 C237.525,652.518 241.355,652.401 242.877,652.331 L245.647,652.204 L245.647,650.874 C245.629,646.913 244.081,641.34 241.933,637.559 C236.703,628.354 227.687,624.05 213.622,624.044 C206.871,624.041 201.004,625.311 195.844,627.893 C192.588,629.521 189.301,632.233 187.248,634.986 C184.983,638.02 183.002,644.81 183.005,649.52 C183.005,656.043 185.472,662.286 189.952,667.125 C193.388,670.835 200.418,674.19 208.788,676.115 C212.043,676.863 222.894,680.336 224.702,681.209 C228.786,683.18 230.939,686.697 230.344,690.424 C229.941,692.949 228.569,695.654 227.062,696.894 C222.67,700.51 214.763,701.885 207.949,700.218 C205.783,699.688 202.88,698.255 201.549,697.058 C199.111,694.865 197.45,691.422 196.367,686.315 C196.098,685.046 195.852,683.98 195.818,683.948 C195.732,683.862 179.898,685.322 179.791,685.427 C179.63,685.584 180.182,689.371 180.713,691.747 C182.209,698.445 185.002,704.068 188.855,708.137 C193.077,712.597 199.402,715.378 207.722,716.431 C211.019,716.848 220.171,716.691 223.594,716.158 z" fill="#FFFFFF"/>
      <path d="M71.077,713.523 C71.22,713.163 72.824,708.542 74.642,703.253 L77.949,693.638 L94.298,693.634 L110.648,693.63 L114.057,703.853 L117.464,714.076 L126.663,714.128 C134.338,714.172 135.862,714.135 135.862,713.905 C135.862,713.754 130.343,698.411 123.597,679.809 C107.287,634.832 103.685,624.905 103.523,624.485 C103.397,624.156 102.762,624.132 94.167,624.132 L84.949,624.132 L84.302,625.983 C83.689,627.74 81.042,635.182 72.708,658.579 C70.676,664.285 68.062,671.628 66.901,674.896 C65.739,678.164 62.152,688.248 58.929,697.303 C55.707,706.358 53.07,713.859 53.07,713.973 C53.07,714.108 56.072,714.177 61.944,714.177 L70.818,714.177 L71.077,713.522 z" fill="#FFFFFF"/>
      <path d="M83.182,679.106 C83.314,678.775 86.847,668.31 91.73,653.788 C92.92,650.25 93.949,647.446 94.017,647.556 C94.131,647.738 95.977,652.959 102.913,672.693 C104.195,676.338 105.243,679.352 105.243,679.39 C105.243,679.428 100.248,679.458 94.143,679.458 C83.651,679.458 83.049,679.439 83.182,679.106" fill="#000000"/>
      <path d="M296.928,676.708 L296.928,639.24 L309.316,639.24 L321.705,639.24 L321.705,631.686 L321.705,624.132 L288.568,624.132 L255.432,624.132 L255.432,631.686 L255.432,639.24 L267.719,639.24 L280.007,639.24 L280.007,676.708 L280.007,714.175 L288.467,714.175 L296.928,714.175 L296.928,676.708 z" fill="#FFFFFF"/>
      <path d="M376.638,695.271 L376.638,676.365 L391.652,650.551 C399.91,636.352 406.718,624.599 406.783,624.433 C406.885,624.164 405.745,624.134 396.975,624.181 L387.05,624.233 L377.907,641.557 C372.879,651.085 368.649,659.093 368.506,659.352 C368.266,659.791 367.601,658.623 358.605,641.978 L348.96,624.132 L339.01,624.132 L329.06,624.132 L329.617,625.089 C329.922,625.616 334.522,633.434 339.835,642.464 C345.149,651.493 351.797,662.789 354.607,667.565 L359.717,676.249 L359.717,695.078 C359.717,705.434 359.778,713.968 359.851,714.041 C359.924,714.116 363.732,714.177 368.312,714.177 L376.637,714.177 L376.637,695.271 z" fill="#FFFFFF"/>
      <path d="M473.688,705.579 L473.688,697.924 L452.587,697.872 L431.487,697.822 L431.487,661.185 C431.487,630.463 431.443,624.512 431.212,624.32 C431.014,624.156 428.587,624.106 422.6,624.144 L414.264,624.197 L414.213,668.513 C414.183,692.888 414.213,712.944 414.256,713.083 C414.333,713.284 420.392,713.325 444.021,713.285 L473.688,713.233 L473.688,705.579 z" fill="#FFFFFF"/>
      <path d="M544.841,713.723 C544.902,713.474 544.925,710.006 544.896,706.017 L544.839,698.766 L521.422,698.715 L498.005,698.663 L498.005,686.476 L498.005,674.291 L519.155,674.291 L540.307,674.291 L540.307,666.737 L540.307,659.182 L519.155,659.182 L498.005,659.182 L498.005,649.212 L498.005,639.24 L520.767,639.24 L543.53,639.24 L543.53,631.686 L543.53,624.132 L512.307,624.132 L481.083,624.132 L481.083,669.154 L481.083,714.175 L512.907,714.175 L544.731,714.175 L544.841,713.723 z" fill="#FFFFFF"/>
      <path d="M168.045,672.458 L167.992,663.846 L152.38,663.846 L136.769,663.846 L136.715,672.458 L136.662,681.07 L152.379,681.07 L168.095,681.07 L168.042,672.458 z" fill="#FFFFFF"/> -->
    

     <!--Yellow background-->
      <path d="M537.71,596.114 C537.875,595.977 538.063,595.917 538.127,595.98 C538.302,596.156 541.275,595.452 541.559,595.168 C541.695,595.033 541.919,594.96 542.056,595.006 C542.196,595.052 542.692,594.909 543.162,594.688 C543.633,594.467 544.244,594.224 544.521,594.147 C545.083,593.991 547.184,592.866 547.341,592.637 C547.396,592.557 547.636,592.43 547.873,592.356 C548.109,592.283 548.54,592.002 548.829,591.735 C549.119,591.467 549.355,591.294 549.355,591.35 C549.355,591.616 551.843,589.474 553.306,587.949 C554.864,586.324 556.38,584.378 556.086,584.378 C556.011,584.378 556.192,584.134 556.492,583.835 C556.791,583.536 557.087,583.037 557.149,582.726 C557.212,582.417 557.345,582.163 557.447,582.163 C557.696,582.163 558.863,579.56 558.869,578.99 C558.869,578.741 558.939,578.537 559.019,578.537 C559.209,578.537 559.691,576.919 559.545,576.773 C559.483,576.711 559.524,576.549 559.637,576.413 C560.44,575.445 560.411,585.702 560.372,316.545 C560.344,124.795 560.276,59.819 560.104,59.608 C559.978,59.452 559.876,59.097 559.879,58.818 C559.879,58.145 559.219,55.983 558.886,55.582 C558.741,55.406 558.67,55.214 558.732,55.153 C558.877,55.01 558.194,53.584 557.981,53.584 C557.892,53.584 557.816,53.385 557.816,53.142 C557.816,52.624 556.281,49.957 555.983,49.957 C555.871,49.957 555.825,49.882 555.883,49.788 C555.943,49.694 555.675,49.274 555.292,48.856 C554.908,48.437 554.594,48.047 554.594,47.991 C554.594,47.804 552.348,45.325 552.179,45.325 C552.09,45.325 551.667,44.999 551.24,44.6 C549.741,43.199 547.435,41.617 547.15,41.794 C547.047,41.857 546.891,41.787 546.8,41.637 C546.711,41.487 546.343,41.213 545.983,41.028 C545.622,40.843 545.078,40.563 544.773,40.408 C543.815,39.916 542.021,39.282 541.591,39.282 C541.364,39.282 541.074,39.177 540.946,39.049 C540.818,38.922 540.414,38.796 540.05,38.77 C539.684,38.744 539.113,38.613 538.781,38.48 C538.448,38.347 537.539,38.206 536.762,38.166 C535.983,38.127 535.213,38.048 535.049,37.991 C534.616,37.84 61.738,37.986 60.662,38.141 C59.23,38.343 57.559,38.707 57.339,38.864 C57.227,38.944 56.931,39.019 56.679,39.032 C56.426,39.046 55.937,39.197 55.591,39.37 C55.243,39.543 54.847,39.684 54.708,39.684 C54.247,39.684 51.739,40.899 51.47,41.251 C51.326,41.442 51.204,41.528 51.201,41.443 C51.182,41.215 49.583,42.074 49.583,42.307 C49.583,42.416 49.466,42.504 49.321,42.504 C48.949,42.504 46.644,44.216 46.496,44.601 C46.428,44.778 46.251,44.922 46.102,44.922 C45.751,44.922 44.701,46.016 44.881,46.195 C44.955,46.27 44.881,46.331 44.707,46.331 C44.419,46.331 42.251,48.732 42.343,48.951 C42.368,49.006 42.102,49.355 41.754,49.727 C41.407,50.098 41.123,50.565 41.123,50.763 C41.123,50.962 41.008,51.167 40.867,51.221 C40.532,51.349 39.222,53.962 39.257,54.431 C39.276,54.629 39.211,54.792 39.12,54.792 C38.936,54.792 38.467,55.831 38.412,56.361 C38.392,56.55 38.281,56.932 38.162,57.21 C37.837,57.975 37.449,60.018 37.57,60.331 C37.628,60.484 37.57,60.644 37.436,60.688 C37.25,60.75 37.186,118.449 37.152,316.077 C37.128,456.497 37.171,571.522 37.227,571.688 C37.293,571.854 37.328,572.421 37.306,572.947 C37.282,573.502 37.353,573.903 37.476,573.903 C37.592,573.903 37.635,574.034 37.575,574.193 C37.444,574.538 37.835,576.574 38.197,577.429 C38.338,577.761 38.56,578.419 38.689,578.889 C38.819,579.36 39.019,579.745 39.133,579.745 C39.249,579.745 39.304,579.859 39.255,579.998 C39.148,580.299 40.648,583.372 40.901,583.372 C40.999,583.372 41.132,583.583 41.197,583.841 C41.261,584.098 41.52,584.539 41.773,584.818 C42.025,585.099 42.358,585.545 42.515,585.81 C43.002,586.634 44.433,588.206 44.698,588.206 C44.837,588.206 44.95,588.34 44.95,588.505 C44.95,588.669 45.313,589.044 45.756,589.338 C46.199,589.631 46.561,589.932 46.561,590.007 C46.561,590.243 49.122,592.033 49.461,592.033 C49.638,592.033 49.785,592.117 49.785,592.219 C49.785,592.484 51.152,593.292 51.372,593.156 C51.473,593.093 51.603,593.167 51.661,593.318 C51.791,593.656 54.757,594.917 55.028,594.749 C55.135,594.682 55.224,594.717 55.224,594.826 C55.224,595.052 56.476,595.508 56.873,595.427 C57.018,595.398 57.321,595.476 57.545,595.599 C58.13,595.924 60.408,596.308 60.873,596.16 C61.09,596.091 61.267,596.126 61.267,596.237 C61.267,596.561 537.32,596.439 537.711,596.114 z" fill="#FFAD0E"/>
     <!--circle around R-->
       <path d="M528.196,50.686 L529.276,50.697 C532.066,50.753 532.436,50.785 533.305,51.037 C533.581,51.117 534.035,51.214 534.312,51.25 C534.786,51.312 535.138,51.446 537.308,52.393 C537.793,52.604 538.315,52.777 538.467,52.777 C538.619,52.777 538.744,52.852 538.744,52.943 C538.744,53.033 539.129,53.32 539.6,53.579 C540.601,54.131 543.067,56.232 544.022,57.343 C544.386,57.768 544.736,58.161 544.798,58.217 C545.133,58.514 546.964,61.689 547.353,62.644 C547.819,63.789 548.553,66.499 548.722,67.706 C548.88,68.829 548.836,71.11 548.624,72.721 C548.365,74.689 547.97,76.063 547.16,77.822 C546.796,78.611 546.495,79.304 546.49,79.362 C546.465,79.672 544.864,81.862 543.77,83.086 C541.824,85.257 539.195,87.028 535.823,88.44 C535.236,88.685 532.843,89.239 532.368,89.239 C532.145,89.239 531.909,89.291 531.843,89.357 C531.738,89.462 529.298,89.596 529.203,89.502 C529.181,89.482 528.486,89.445 527.659,89.422 C526.83,89.398 525.927,89.305 525.649,89.215 C525.373,89.124 524.919,89.015 524.641,88.974 C524.365,88.931 524.003,88.847 523.837,88.784 C521.92,88.058 520.661,87.627 520.458,87.627 C520.323,87.627 520.21,87.551 520.21,87.457 C520.21,87.364 519.779,87.051 519.253,86.762 C517.289,85.685 514.669,83.255 513.233,81.18 C512.159,79.63 510.819,76.716 510.452,75.138 C510.259,74.306 510.056,73.491 510.001,73.325 C509.872,72.931 509.723,71.224 509.73,70.202 C509.748,68.656 510.231,65.147 510.547,64.361 C511.131,62.911 512.105,60.822 512.497,60.185 C512.75,59.772 512.958,59.349 512.958,59.244 C512.958,59.141 513.028,59.025 513.114,58.989 C513.198,58.952 513.479,58.649 513.734,58.317 C515.011,56.662 516.897,54.912 518.521,53.875 C519.174,53.458 519.954,52.951 520.253,52.746 C520.553,52.542 520.895,52.375 521.011,52.375 C521.128,52.375 521.607,52.201 522.077,51.989 C522.547,51.775 523.611,51.448 524.441,51.258 C525.272,51.069 526.088,50.853 526.254,50.778 C527.117,50.651 526.474,50.732 528.196,50.686 z M529.646,54.444 C528.069,54.476 526.485,54.544 524.943,54.892 C523.6,55.309 521.62,56.232 521.62,56.439 C521.62,56.53 521.46,56.606 521.267,56.606 C520.861,56.606 518.632,58.297 518.465,58.731 C518.403,58.892 518.266,59.022 518.161,59.022 C517.947,59.022 516.864,60.243 516.922,60.421 C516.942,60.483 516.83,60.604 516.674,60.691 C516.25,60.93 514.716,63.606 514.866,63.848 C514.937,63.963 514.907,64.059 514.802,64.059 C514.575,64.059 513.947,65.785 514.112,65.951 C514.174,66.013 514.13,66.178 514.017,66.319 C513.564,66.881 513.473,68.053 513.623,71.411 C513.706,73.231 514.269,75.742 514.596,75.742 C514.692,75.742 514.771,75.883 514.771,76.054 C514.771,76.367 515.324,77.567 515.554,77.756 C515.622,77.812 515.831,78.191 516.019,78.598 C516.351,79.315 519.116,82.39 519.429,82.39 C519.515,82.39 519.819,82.607 520.105,82.871 C520.961,83.664 524.487,85.312 524.948,85.136 C525.113,85.073 525.246,85.101 525.246,85.201 C525.246,85.645 531.141,86.015 531.406,85.587 C531.468,85.487 531.609,85.46 531.718,85.528 C532.012,85.709 534.685,85.008 535.035,84.658 C535.202,84.491 535.39,84.408 535.454,84.472 C535.614,84.632 537.131,83.838 537.131,83.594 C537.131,83.486 537.281,83.397 537.465,83.397 C537.648,83.397 538.124,83.156 538.523,82.86 C539.394,82.215 541.762,79.929 541.764,79.73 C541.764,79.653 541.968,79.368 542.218,79.097 C542.916,78.337 544.367,75.338 544.461,74.462 C544.487,74.215 544.573,73.91 544.651,73.784 C544.863,73.44 545.148,70.733 545.08,69.699 C544.929,67.364 544.561,65.442 544.077,64.461 C543.941,64.185 543.682,63.64 543.501,63.253 C542.715,61.571 540.819,58.96 540.518,59.146 C540.428,59.202 540.354,59.146 540.354,59.021 C540.354,58.804 539.188,57.713 538.955,57.713 C538.893,57.713 538.641,57.511 538.396,57.266 C537.947,56.818 535.519,55.496 535.519,55.7 C535.519,55.759 535.289,55.657 535.007,55.473 C534.726,55.288 534.159,55.066 533.748,54.979 C533.338,54.89 532.594,54.716 532.095,54.591 C530.884,54.408 531.696,54.506 529.646,54.444 z" fill="#000000"/>
     
     <!--R-->
    <path d="M526.454,59.123 C532.254,59.123 533.119,59.164 534.046,59.488 C537.721,60.769 538.937,65.976 536.271,69.007 C535.405,69.99 534.512,70.528 533.122,70.902 L532.239,71.14 L532.85,71.511 C533.186,71.716 533.955,72.501 534.559,73.259 C536.022,75.089 539.593,80.741 539.442,80.987 C539.375,81.093 538.514,81.181 537.528,81.181 C536.013,81.181 535.679,81.121 535.374,80.791 C535.177,80.575 534.244,79.164 533.303,77.653 C531.206,74.288 529.725,72.454 528.676,71.917 C528.02,71.584 527.488,71.511 525.656,71.511 L523.432,71.511 L523.432,76.027 C523.432,78.512 523.377,80.688 523.309,80.862 C523.212,81.115 522.861,81.181 521.601,81.181 C520.122,81.181 520.007,81.151 519.904,80.728 L519.907,80.728 C519.846,80.479 519.823,75.516 519.852,69.699 L519.907,59.123 L526.454,59.123 z M523.433,61.802 L523.433,68.531 L527.628,68.461 L531.822,68.39 L532.68,67.822 C533.57,67.234 534.299,66.004 534.307,65.079 C534.307,64.141 533.517,62.865 532.628,62.396 C531.865,61.994 531.436,61.95 527.614,61.879 L523.433,61.802 z" fill="#000000"/>
     
     <!--Real Logo-->
      <g>
        <path d="M298.967,265.154 C299.002,265.154 299.037,265.189 299.107,265.259 C299.26,265.424 300.316,268.193 301.419,271.432 C303.168,276.513 311.851,301.673 318.094,319.756 C319.185,322.912 320.957,328.099 322.048,331.302 C323.151,334.506 325.522,341.3 327.282,346.405 C329.042,351.521 330.931,357.025 331.495,358.644 C332.046,360.275 332.903,362.821 333.407,364.277 C335.837,371.247 339.005,380.517 339.005,380.611 C339.005,380.67 321.098,380.717 299.213,380.717 C276.131,380.717 259.386,380.646 259.386,380.541 C259.386,380.435 259.761,379.262 260.219,377.924 C260.935,375.823 262.402,371.587 268.175,354.689 C271.238,345.701 289.708,291.593 290.788,288.424 C291.456,286.465 293.428,280.808 295.106,275.856 C296.796,270.927 298.298,266.445 298.485,265.917 C298.697,265.295 298.814,265.107 298.967,265.154 M298.99,155.717 C286.716,155.717 274.441,155.823 273.397,156.046 C270.604,156.644 268.621,157.982 267.037,160.364 C266.239,161.573 266.309,161.373 261.123,174.809 C259.175,179.867 255.103,190.498 252.04,198.408 C249.001,206.328 245.598,215.118 244.495,217.981 C243.392,220.856 240,229.668 236.938,237.589 C233.887,245.51 230.038,255.531 228.383,259.85 C226.705,264.168 224.077,270.916 222.563,274.847 C221.049,278.778 216.39,290.877 212.213,301.72 C208.035,312.551 203.87,323.428 202.919,325.893 C201.969,328.369 200.291,332.734 199.188,335.597 C198.085,338.449 194.682,347.285 191.63,355.194 C188.58,363.115 185.177,371.939 184.073,374.802 C182.97,377.666 179.579,386.467 176.528,394.376 C173.465,402.285 169.581,412.306 167.927,416.636 C166.26,420.954 164.113,426.505 163.162,428.981 C158.856,440.141 145.079,475.918 143.742,479.415 C142.92,481.539 139.904,489.413 137.03,496.865 C134.143,504.339 131.315,511.65 130.74,513.14 L129.684,515.863 L98.752,515.898 L67.784,515.968 L66.153,516.59 C62.245,518.057 60.074,520.111 58.889,523.42 L58.408,524.758 L58.408,544.331 C58.42,563.775 58.408,563.963 58.854,565.5 C59.452,567.624 60.027,568.786 61.06,569.924 C62.456,571.485 64.85,572.576 67.807,573.01 C68.488,573.104 94.621,573.174 126.492,573.151 L183.968,573.116 L185.235,572.541 C186.186,572.107 186.878,571.543 187.899,570.476 C189.542,568.692 190.07,567.753 191.267,564.444 C191.771,563.036 194.153,556.394 196.559,549.658 C198.976,542.923 202.731,532.479 204.891,526.459 C211.298,508.587 213.386,502.755 215.381,497.158 C216.414,494.248 218.62,488.11 220.286,483.511 C225.825,468.08 228.794,459.865 230.19,455.958 L231.575,452.062 L299.072,451.991 C336.2,451.968 366.569,451.991 366.569,452.038 C366.569,452.121 372.789,469.476 380.803,491.748 C382.88,497.533 385.04,503.565 385.591,505.114 C386.143,506.675 387.034,509.209 387.586,510.746 C388.818,514.138 394.134,528.935 398.124,540.048 C406.526,563.529 407.852,567.19 408.215,567.894 C408.943,569.326 410.551,571.227 411.595,571.919 C413.742,573.35 408.896,573.233 472.779,573.151 C526.993,573.104 530.501,573.104 531.733,572.752 C535.723,571.672 537.894,569.537 538.997,565.688 C539.349,564.444 539.361,563.106 539.431,545.047 C539.478,531.212 539.443,525.415 539.29,524.535 C538.61,520.979 536.005,518.186 531.839,516.59 L530.208,515.968 L499.311,515.863 L468.414,515.757 L467.686,513.938 C467.287,512.917 465.844,509.139 464.447,505.548 C463.063,501.957 460.845,496.125 459.484,492.581 C458.111,489.049 455.752,482.983 454.25,479.122 C452.76,475.249 449.979,468.009 448.089,463.069 C446.177,458.129 442.316,448.213 439.547,441.032 C432.072,421.682 432.119,421.729 431.602,420.403 C431.332,419.734 429.525,415.087 427.601,410.088 C421.816,395.103 413.86,374.462 407.018,356.719 C402.348,344.668 401.339,342.075 395.753,327.641 C393.266,321.175 390.473,313.935 389.546,311.518 C372.425,267.16 368.318,256.482 367.919,255.449 C367.649,254.78 365.854,250.192 363.953,245.252 C362.04,240.312 358.684,231.593 356.466,225.866 C349.026,206.575 345.917,198.525 342.783,190.428 C341.07,185.992 337.878,177.673 335.672,171.946 C333.454,166.22 331.389,161.115 331.084,160.61 C329.688,158.217 327.458,156.644 324.63,156.046 C323.574,155.823 311.264,155.717 298.99,155.717" fill="#000000"/>
        <path d="M124.755,383.568 C111.835,382.711 99.96,378.135 89.939,370.167 C87.51,368.231 82.558,363.244 80.539,360.697 C74.226,352.741 70.084,343.342 68.417,333.25 C67.303,326.479 67.49,318.664 68.922,311.694 C71.093,301.191 76.655,290.748 84.341,282.733 C100.371,266.023 124.239,259.792 146.441,266.504 C151.651,268.088 157.424,270.799 161.954,273.779 C177.596,284.106 187.476,300.346 189.178,318.512 C189.518,322.161 189.319,328.955 188.755,332.617 C187.23,342.65 183.076,352.26 176.704,360.498 C173.63,364.476 167.797,369.932 163.338,372.995 C152.367,380.552 138.109,384.46 124.755,383.568 z" fill="#000000"/>
        <path d="M212.025,173.977 C206.146,173.261 203.693,172.768 199.575,171.548 C186.467,167.629 175.12,159.508 167.07,148.29 C161.484,140.51 157.964,131.498 156.567,121.441 C156.063,117.862 156.075,110.024 156.567,106.632 C158.527,93.231 164.289,81.755 173.735,72.367 C183.604,62.581 195.726,56.678 209.983,54.754 C213.55,54.273 221.213,54.261 224.687,54.754 C238.24,56.62 249.81,62.158 259.433,71.393 C269.078,80.64 275.098,92.257 277.293,105.811 C277.868,109.343 277.809,119.317 277.199,123.037 C275.556,132.965 271.848,141.824 266.121,149.499 C257.532,161.034 245.691,168.943 231.997,172.358 C226.811,173.648 224.428,173.93 218.256,174 C215.217,174.036 212.412,174.024 212.025,173.977 z" fill="#000000"/>
      </g>
    </g>
  </g>
</svg>
